<?xml version="1.0" encoding="UTF-8"?><svg id="Path" xmlns="http://www.w3.org/2000/svg" viewBox="0 0 100 100"><path d="M94.82,41.66h-12.23c-.36-3.02-1.52-5.96-3.5-8.47l8.64-8.64c.78-.78,.78-2.05,0-2.83s-2.05-.78-2.83,0l-8.64,8.64c-2.51-1.98-5.45-3.14-8.47-3.5V14.63c0-1.1-.9-2-2-2s-2,.9-2,2v12.23c-3.02,.36-5.96,1.52-8.47,3.5l-8.64-8.64c-.78-.78-2.05-.78-2.83,0s-.78,2.05,0,2.83l8.64,8.64c-.8,1.01-1.49,2.1-2.04,3.27-.11,.24-.17,.48-.18,.73-5.3,.48-8.32,2.81-11.01,4.89-2.88,2.23-5.36,4.15-10.57,4.15-1.1,0-2,.9-2,2s.9,2,2,2c6.58,0,10-2.65,13.02-4.99,2.88-2.23,5.36-4.15,10.57-4.15s7.7,1.92,10.57,4.15c1.77,1.37,3.6,2.79,6.11,3.77,1.02,.41,2.19-.1,2.59-1.13,.4-1.03-.1-2.19-1.13-2.59-1.97-.77-3.5-1.96-5.12-3.21-2.65-2.05-5.6-4.34-10.73-4.87,.56-.98,1.26-1.89,2.07-2.7,2.44-2.44,5.69-3.79,9.14-3.79h.01c3.45,0,6.7,1.35,9.14,3.79,5.04,5.04,5.04,13.25,0,18.3-.91,.91-1.95,1.68-3.08,2.28-.98,.52-1.35,1.73-.83,2.7,.36,.68,1.05,1.06,1.77,1.06,.32,0,.64-.08,.94-.23,.89-.47,1.73-1.04,2.53-1.66l8.64,8.64c.39,.39,.9,.59,1.41,.59s1.02-.2,1.41-.59c.78-.78,.78-2.05,0-2.83l-8.64-8.64c1.98-2.51,3.14-5.45,3.5-8.47h12.23c1.1,0,2-.9,2-2s-.9-2-2-2Z"/><path d="M75.88,82.96c-5.21,0-7.7-1.92-10.57-4.15-3.02-2.34-6.44-4.99-13.02-4.99-1.1,0-2,.9-2,2s.9,2,2,2c5.21,0,7.7,1.92,10.57,4.15,3.02,2.34,6.44,4.99,13.02,4.99,1.1,0,2-.9,2-2s-.9-2-2-2Z"/><path d="M39.69,78.48l-.42,.33c-2.88,2.23-5.36,4.15-10.57,4.15s-7.7-1.92-10.57-4.15c-3.02-2.34-6.44-4.99-13.02-4.99-1.1,0-2,.9-2,2s.9,2,2,2c5.21,0,7.7,1.92,10.57,4.15,3.02,2.34,6.44,4.99,13.02,4.99s10-2.65,13.02-4.99l.42-.32c.87-.67,1.04-1.93,.36-2.81-.68-.88-1.93-1.04-2.81-.36Z"/><path d="M5.1,59.46c5.21,0,7.7,1.92,10.57,4.15,3.02,2.34,6.44,4.99,13.02,4.99s10-2.65,13.02-4.99c2.88-2.23,5.36-4.15,10.57-4.15s7.7,1.92,10.57,4.15c.87,.67,2.13,.52,2.81-.36,.68-.87,.52-2.13-.36-2.81-3.02-2.34-6.44-4.99-13.02-4.99s-10,2.65-13.02,4.99c-2.88,2.23-5.36,4.15-10.57,4.15s-7.7-1.92-10.57-4.15c-3.02-2.34-6.44-4.99-13.02-4.99-1.1,0-2,.9-2,2s.9,2,2,2Z"/><path d="M5.1,41.09c5.21,0,7.7,1.92,10.57,4.15,.36,.28,.79,.42,1.22,.42,.6,0,1.19-.27,1.58-.78,.68-.87,.52-2.13-.36-2.81-3.02-2.34-6.44-4.99-13.02-4.99-1.1,0-2,.9-2,2s.9,2,2,2Z"/></svg>