<?xml version="1.0" encoding="UTF-8"?><svg id="Path" xmlns="http://www.w3.org/2000/svg" viewBox="0 0 100 100"><path d="M96.44,46.91c-.52-.65-1.4-.91-2.19-.65-2.87,.95-5.85,1.26-8.86,.94-11.49-1.26-19.82-11.63-18.57-23.12,.33-3.01,1.28-5.85,2.83-8.45,.43-.72,.37-1.62-.16-2.28-.52-.65-1.4-.91-2.19-.65-9.26,3.07-15.92,11.31-16.98,20.99-.13,1.17-.16,2.36-.12,3.53-5.01,.57-7.92,2.82-10.54,4.85-2.88,2.23-5.36,4.15-10.57,4.15-1.1,0-2,.9-2,2s.9,2,2,2c6.58,0,10-2.65,13.02-4.99,2.88-2.23,5.36-4.15,10.57-4.15,2.64,0,4.8,.5,6.8,1.56,.98,.52,2.19,.15,2.7-.83s.15-2.19-.83-2.7c-2.2-1.17-4.51-1.8-7.17-1.98-.03-1,0-2.01,.1-3.01,.7-6.39,4.3-12.03,9.59-15.4-.51,1.59-.86,3.23-1.04,4.92-1.5,13.68,8.42,26.04,22.11,27.53,1.69,.19,3.37,.2,5.03,.04-3.97,3.98-9.42,6.29-15.18,6.16h-.04c-1.09,0-1.98,.87-2,1.96-.02,1.1,.86,2.02,1.96,2.04,.15,0,.29,0,.44,0,8.75,0,16.93-4.64,21.43-12.19,.43-.72,.36-1.62-.16-2.28Z"/><path d="M76.28,82.96c-5.21,0-7.7-1.92-10.57-4.15-3.02-2.34-6.44-4.99-13.02-4.99-1.1,0-2,.9-2,2s.9,2,2,2c5.21,0,7.7,1.92,10.57,4.15,3.02,2.34,6.44,4.99,13.02,4.99,1.1,0,2-.9,2-2s-.9-2-2-2Z"/><path d="M40.09,78.48l-.42,.33c-2.88,2.23-5.36,4.15-10.57,4.15s-7.7-1.92-10.57-4.15c-3.02-2.34-6.44-4.99-13.02-4.99-1.1,0-2,.9-2,2s.9,2,2,2c5.21,0,7.7,1.92,10.57,4.15,3.02,2.34,6.44,4.99,13.02,4.99s10-2.65,13.02-4.99l.42-.32c.87-.67,1.04-1.93,.36-2.81-.68-.88-1.93-1.04-2.81-.36Z"/><path d="M5.51,59.46c5.21,0,7.7,1.92,10.57,4.15,3.02,2.34,6.44,4.99,13.02,4.99s10-2.65,13.02-4.99c2.88-2.23,5.36-4.15,10.57-4.15s7.7,1.92,10.57,4.15c.88,.68,2.13,.52,2.81-.36,.68-.87,.52-2.13-.36-2.81-3.02-2.34-6.44-4.99-13.02-4.99s-10,2.65-13.02,4.99c-2.88,2.23-5.36,4.15-10.57,4.15s-7.7-1.92-10.57-4.15c-3.02-2.34-6.44-4.99-13.02-4.99-1.1,0-2,.9-2,2s.9,2,2,2Z"/><path d="M5.51,41.09c5.21,0,7.7,1.92,10.57,4.15,.36,.28,.79,.42,1.22,.42,.6,0,1.19-.27,1.58-.78,.68-.87,.52-2.13-.36-2.81-3.02-2.34-6.44-4.99-13.02-4.99-1.1,0-2,.9-2,2s.9,2,2,2Z"/></svg>