<?xml version="1.0" encoding="UTF-8"?><svg id="Path" xmlns="http://www.w3.org/2000/svg" viewBox="0 0 100 100"><path d="M94.83,69.27c-6.97,0-10.39-1.83-14.01-3.76-3.89-2.08-7.92-4.24-15.89-4.24-1.1,0-2,.9-2,2s.9,2,2,2c6.97,0,10.39,1.83,14.01,3.76,3.89,2.08,7.92,4.24,15.89,4.24,1.1,0,2-.9,2-2s-.9-2-2-2Z"/><path d="M49.57,65.22l-.54,.29c-3.62,1.93-7.03,3.76-14.01,3.76s-10.39-1.83-14.01-3.76c-3.89-2.08-7.92-4.24-15.89-4.24-1.1,0-2,.9-2,2s.9,2,2,2c6.97,0,10.39,1.83,14.01,3.76,3.89,2.08,7.92,4.24,15.89,4.24s12-2.15,15.89-4.24l.53-.28c.97-.52,1.34-1.73,.83-2.71-.52-.97-1.73-1.34-2.71-.83Z"/><path d="M94.83,53.19c-6.97,0-10.39-1.83-14.01-3.76-3.89-2.08-7.92-4.24-15.89-4.24s-12,2.15-15.9,4.24c-3.62,1.94-7.03,3.76-14.01,3.76s-10.39-1.83-14.01-3.76c-3.89-2.08-7.92-4.24-15.89-4.24-1.1,0-2,.9-2,2s.9,2,2,2c6.97,0,10.39,1.83,14.01,3.76,3.89,2.08,7.92,4.24,15.89,4.24s12-2.15,15.9-4.24c3.62-1.94,7.03-3.76,14.01-3.76s10.39,1.83,14.01,3.76c3.89,2.08,7.92,4.24,15.89,4.24,1.1,0,2-.9,2-2s-.9-2-2-2Z"/><path d="M35.02,41.1c7.98,0,12-2.15,15.9-4.24,3.62-1.94,7.03-3.76,14.01-3.76s10.39,1.83,14.01,3.76c3.89,2.08,7.92,4.24,15.89,4.24,1.1,0,2-.9,2-2s-.9-2-2-2c-6.97,0-10.39-1.83-14.01-3.76-3.89-2.08-7.92-4.24-15.89-4.24s-12,2.15-15.9,4.24c-3.62,1.94-7.03,3.76-14.01,3.76-1.1,0-2,.9-2,2s.9,2,2,2Z"/><path d="M5.13,33.1c6.97,0,10.39,1.83,14.01,3.76,.3,.16,.62,.24,.94,.24,.71,0,1.4-.38,1.77-1.06,.52-.97,.15-2.19-.82-2.71-3.89-2.08-7.92-4.24-15.89-4.24-1.1,0-2,.9-2,2s.9,2,2,2Z"/><path d="M59.96,17.76c6.79-1.61,10.53-.62,14.5,.43,.17,.04,.34,.07,.51,.07,.89,0,1.7-.59,1.93-1.49,.28-1.07-.35-2.16-1.42-2.44-4.27-1.13-8.68-2.29-16.44-.45-1.07,.25-1.74,1.33-1.48,2.41,.26,1.07,1.34,1.73,2.41,1.48Z"/><path d="M40.31,83.55c-6.78,1.61-10.53,.62-14.5-.43-1.07-.28-2.16,.36-2.44,1.42s.35,2.16,1.42,2.44c2.65,.7,5.36,1.42,8.89,1.42,2.15,0,4.61-.27,7.55-.96,1.07-.26,1.74-1.33,1.48-2.41-.25-1.08-1.33-1.73-2.41-1.48Z"/></svg>