<?xml version="1.0" encoding="UTF-8"?><svg id="Path" xmlns="http://www.w3.org/2000/svg" viewBox="0 0 100 100"><path d="M95.3,48h-20.08c-.41-5.18-2.4-10.25-5.96-14.42l14.19-14.19c.78-.78,.78-2.05,0-2.83-.78-.78-2.05-.78-2.83,0l-14.19,14.19c-4.18-3.57-9.25-5.56-14.42-5.96V4.7c0-1.1-.9-2-2-2s-2,.9-2,2V24.78c-5.18,.41-10.25,2.4-14.42,5.96l-14.19-14.19c-.78-.78-2.05-.78-2.83,0-.78,.78-.78,2.05,0,2.83l14.19,14.19c-3.57,4.18-5.56,9.25-5.96,14.42H4.7c-1.1,0-2,.9-2,2s.9,2,2,2H24.78c.41,5.18,2.4,10.25,5.96,14.42l-14.19,14.19c-.78,.78-.78,2.05,0,2.83,.39,.39,.9,.59,1.41,.59s1.02-.2,1.41-.59l14.19-14.19c4.18,3.57,9.25,5.56,14.42,5.96v20.08c0,1.1,.9,2,2,2s2-.9,2-2v-20.08c5.18-.41,10.25-2.39,14.42-5.96l14.19,14.19c.39,.39,.9,.59,1.41,.59s1.02-.2,1.41-.59c.78-.78,.78-2.05,0-2.83l-14.19-14.19c3.57-4.18,5.56-9.25,5.96-14.42h20.08c1.1,0,2-.9,2-2s-.9-2-2-2Zm-30.23,17.07c-8.31,8.31-21.83,8.31-30.14,0s-8.31-21.83,0-30.14c4.16-4.15,9.61-6.23,15.07-6.23s10.92,2.08,15.07,6.23c8.31,8.31,8.31,21.83,0,30.14Z"/></svg>