<?xml version="1.0" encoding="UTF-8"?><svg id="Path" xmlns="http://www.w3.org/2000/svg" viewBox="0 0 100 100"><path d="M55.95,57.62V17.18c0-7.72-6.28-14-14-14s-14,6.28-14,14V57.62c-5.19,4.23-8.14,10.42-8.14,17.13,0,12.21,9.93,22.14,22.14,22.14s22.14-9.93,22.14-22.14c0-6.71-2.96-12.9-8.14-17.13Zm-14,35.27c-10,0-18.14-8.14-18.14-18.14,0-5.78,2.67-11.08,7.34-14.55,.51-.38,.81-.97,.81-1.6V17.18c0-5.51,4.49-10,10-10s10,4.49,10,10V58.59c0,.63,.3,1.23,.81,1.6,4.66,3.47,7.34,8.77,7.34,14.55,0,10-8.14,18.14-18.14,18.14Z"/><path d="M48.03,61.55V17c0-3.21-2.62-5.83-5.83-5.83h-.51c-3.21,0-5.83,2.62-5.83,5.83V61.55c-4.91,2.33-8.11,7.32-8.11,12.82,0,7.83,6.37,14.21,14.21,14.21s14.21-6.37,14.21-14.21c0-5.51-3.21-10.5-8.13-12.83Zm-6.34-46.37h.51c1.01,0,1.83,.82,1.83,1.83V54.57h-4.17V17c0-1.01,.82-1.83,1.83-1.83Zm.26,69.41c-5.63,0-10.21-4.58-10.21-10.21,0-4.3,2.73-8.16,6.79-9.6,.8-.28,1.33-1.04,1.33-1.88v-4.31h4.17v4.31c0,.85,.53,1.6,1.33,1.88,4.07,1.44,6.8,5.3,6.8,9.61,0,5.63-4.58,10.21-10.21,10.21Z"/><path d="M79.61,48.17c-.78-.78-2.05-.78-2.83,0l-4.34,4.34V23.89c0-1.1-.9-2-2-2s-2,.9-2,2v28.62l-4.34-4.34c-.78-.78-2.05-.78-2.83,0s-.78,2.05,0,2.83l7.75,7.75c.39,.39,.9,.59,1.41,.59s1.02-.2,1.41-.59l7.75-7.75c.78-.78,.78-2.05,0-2.83Z"/></svg>