<?xml version="1.0" encoding="UTF-8"?><svg id="Path" xmlns="http://www.w3.org/2000/svg" viewBox="0 0 100 100"><path d="M48.8,27.66c.9,.64,2.15,.44,2.79-.45,1.58-2.19,4.14-4.4,7.4-2.53,1.71,.98,2.79,2.93,2.63,4.73-.14,1.51-1.12,3.09-2.69,4.33-1.61,1.28-3.69,2.19-5.69,3.06l-.8,.35s-30.58,13.5-43.71,19.29c-1.01,.45-1.47,1.63-1.02,2.64,.33,.75,1.06,1.19,1.83,1.19,.27,0,.54-.06,.81-.17,0,0,43.47-19.18,43.7-19.28l.79-.35c2.24-.98,4.56-1.99,6.58-3.59,2.46-1.95,3.95-4.47,4.19-7.11,.3-3.36-1.56-6.8-4.63-8.56-4.36-2.5-9.21-1.1-12.64,3.66-.65,.9-.44,2.15,.45,2.79Z"/><path d="M85.76,55.12c-2.1-1.6-4.97-2.2-8.07-1.7-2.55,.41-4.86,1.44-7.09,2.44l-.79,.35c-.31,.14-43.7,19.28-43.7,19.28-1.01,.45-1.47,1.63-1.02,2.64,.33,.75,1.06,1.19,1.83,1.19,.27,0,.54-.06,.81-.17,43.13-19.03,43.7-19.28,43.7-19.28l.8-.36c2-.89,4.07-1.81,6.1-2.14,1.98-.32,3.81,.02,5.01,.94,1.44,1.09,2.15,3.2,1.72,5.13-.82,3.67-4.18,4.08-6.86,3.76-1.08-.13-2.09,.66-2.22,1.76-.13,1.1,.66,2.09,1.76,2.22,5.83,.67,10.13-1.96,11.22-6.87,.77-3.46-.52-7.15-3.2-9.18Z"/><path d="M54.58,78.96c-.66,.28-1.32,.57-1.97,.86l-.86,.38q-.05,.02-2.71,1.23c-1.01,.46-1.45,1.64-.99,2.65,.33,.74,1.06,1.17,1.82,1.17,.28,0,.56-.06,.83-.18,1.55-.71,2.54-1.15,2.61-1.18l.94-.42c.63-.28,1.27-.56,1.91-.84,1.02-.43,1.49-1.61,1.06-2.62-.43-1.02-1.6-1.49-2.62-1.06Z"/><path d="M41.73,84.75l-5.48,2.49c-1.01,.46-1.45,1.64-.99,2.65,.33,.74,1.06,1.17,1.82,1.17,.28,0,.56-.06,.83-.18l5.48-2.49c1.01-.46,1.45-1.64,.99-2.65-.46-1.01-1.64-1.45-2.65-.99Z"/><path d="M28.94,90.56l-5.49,2.49c-1.01,.46-1.45,1.64-.99,2.65,.33,.74,1.06,1.17,1.82,1.17,.28,0,.56-.06,.83-.18l5.49-2.49c1.01-.46,1.45-1.64,.99-2.65-.46-1.01-1.64-1.45-2.65-.99Z"/><path d="M62.31,93.22c-.32-.01-.64-.04-.97-.08-1.09-.12-2.09,.66-2.21,1.76-.12,1.1,.66,2.09,1.76,2.21,.42,.05,.83,.08,1.23,.1,.03,0,.07,0,.1,0,1.06,0,1.94-.83,2-1.9,.05-1.1-.8-2.04-1.9-2.1Z"/><path d="M70.33,81.62c.65-.89,.46-2.14-.43-2.79-1.81-1.33-4.12-2.03-6.7-2.03h-.18c-1.1,.02-1.98,.94-1.96,2.04,.02,1.09,.91,1.96,2,1.96h.14c1.2,0,2.93,.22,4.34,1.25,.36,.26,.77,.39,1.18,.39,.62,0,1.22-.28,1.61-.82Z"/><path d="M71.97,85.45c-1.08-.04-2.04,.81-2.09,1.91-.02,.37-.07,.75-.14,1.11-.27,1.21-.79,2.21-1.55,2.97-.78,.78-.78,2.05,0,2.83,.39,.39,.9,.59,1.42,.59s1.02-.19,1.41-.58c1.31-1.31,2.19-2.96,2.63-4.93,.13-.59,.21-1.19,.24-1.8,.05-1.1-.81-2.04-1.91-2.09Z"/><path d="M89.88,13.21c-6.71-3.85-13.91-1.72-19.26,5.7-.65,.9-.44,2.15,.45,2.79,.9,.65,2.15,.44,2.79-.45,4.15-5.75,9.13-7.38,14.03-4.57,3.28,1.88,5.35,5.63,5.03,9.12-.26,2.86-2.07,5.82-4.96,8.12-2.82,2.24-6.35,3.78-9.76,5.26l-1.33,.58c-.12,.05-72.59,32.03-72.59,32.03-1.01,.45-1.47,1.63-1.02,2.64,.33,.75,1.06,1.19,1.83,1.19,.27,0,.54-.06,.81-.17,0,0,72.52-32,72.59-32.03l1.32-.58c3.65-1.59,7.42-3.24,10.64-5.8,3.8-3.01,6.09-6.88,6.45-10.89,.46-5.07-2.36-10.28-7.02-12.95Z"/><path d="M31.12,6.74c1.12,.16,2.24,.56,3.34,1.19,.39,.23,.78,.49,1.14,.77,.37,.29,.8,.43,1.24,.43,.59,0,1.18-.26,1.57-.76,.68-.87,.54-2.12-.33-2.81-.52-.41-1.07-.78-1.63-1.1-1.54-.88-3.14-1.45-4.76-1.68-1.1-.15-2.11,.6-2.27,1.69-.16,1.09,.6,2.11,1.69,2.27Z"/><path d="M39.31,15.96c0,.23,0,.46-.03,.69-.07,.76-.25,1.54-.54,2.3-.39,1.03,.13,2.19,1.16,2.58,.23,.09,.47,.13,.71,.13,.81,0,1.57-.49,1.87-1.29,.42-1.1,.68-2.23,.78-3.35,.03-.35,.05-.7,.05-1.05,0-.88-.1-1.76-.29-2.64-.24-1.08-1.31-1.76-2.39-1.52-1.08,.24-1.76,1.31-1.52,2.39,.13,.59,.2,1.18,.2,1.77Z"/><path d="M30.74,31.12c.3,0,.61-.07,.9-.21,2.17-1.1,3.88-2.16,5.44-3.4,.85-.69,.96-1.93,.27-2.79-.69-.86-1.96-.98-2.83-.29-1.28,1.02-2.77,1.94-4.69,2.91-.99,.5-1.38,1.7-.88,2.69,.35,.7,1.06,1.1,1.79,1.1Z"/><path d="M18.42,12.51c.36,.27,.78,.39,1.19,.39,.61,0,1.22-.28,1.61-.81,1.17-1.58,2.44-2.84,3.76-3.75,.91-.62,1.14-1.87,.52-2.78-.62-.91-1.87-1.14-2.78-.52-1.69,1.16-3.27,2.73-4.71,4.67-.66,.89-.47,2.14,.42,2.8Z"/><path d="M5.09,42.57c.27,0,.55-.06,.81-.17l5.51-2.45c1.01-.45,1.46-1.63,1.02-2.64-.45-1.01-1.63-1.46-2.64-1.02l-5.51,2.45c-1.01,.45-1.46,1.63-1.02,2.64,.33,.75,1.06,1.19,1.83,1.19Z"/><path d="M17.94,36.86c.27,0,.55-.06,.81-.17l5.5-2.44c1.01-.45,1.46-1.63,1.02-2.64-.45-1.01-1.63-1.46-2.64-1.02l-5.5,2.44c-1.01,.45-1.46,1.63-1.02,2.64,.33,.75,1.06,1.19,1.83,1.19Z"/></svg>